<svg width="94" height="101" viewBox="0 0 94 101" fill="none" xmlns="http://www.w3.org/2000/svg">
<path d="M92.2941 63.0002C91.7969 63.0002 91.3901 62.5978 91.3901 62.1007C91.354 53.9832 89.2929 45.8612 85.2659 37.9741C81.7585 31.1041 79.6116 25.3054 78.7212 20.2839H71.8965V25.7889C71.8965 26.1415 71.693 26.4579 71.3766 26.607C71.0602 26.7561 70.6851 26.7065 70.414 26.4805L58.0344 16.1438C57.8264 15.972 57.709 15.7189 57.709 15.4478C57.709 15.1765 57.8264 14.9235 58.0344 14.7518L70.414 4.41502C70.6851 4.18903 71.0602 4.13935 71.3766 4.2885C71.693 4.43765 71.8965 4.75853 71.8965 5.10655V10.6116H78.6037C78.6986 7.33027 79.1235 4.01732 79.7789 1.39585C79.901 0.91224 80.3936 0.618477 80.8772 0.740515C81.3607 0.862552 81.6546 1.35517 81.5325 1.83878C80.8455 4.56419 80.4297 8.09414 80.3936 11.5246C80.3891 12.0218 79.9867 12.4195 79.4896 12.4195H70.997C70.4999 12.4195 70.0931 12.0128 70.0931 11.5156V7.03652L60.0276 15.4433L70.0931 23.8499V19.3709C70.0931 18.8738 70.4999 18.467 70.997 18.467H79.4896C79.9371 18.467 80.3167 18.7924 80.3845 19.2308C81.1575 24.2341 83.2862 30.0918 86.884 37.1425C91.0421 45.2872 93.1709 53.6804 93.2071 62.0825C93.198 62.5933 92.7957 63.0002 92.2941 63.0002Z" fill="#CA6464"/>
<path fill-rule="evenodd" clip-rule="evenodd" d="M74.7154 100.582C74.86 100.672 75.0228 100.713 75.181 100.713C75.4883 100.713 75.7866 100.555 75.9584 100.265C83.0815 88.3873 86.6656 75.5421 86.6069 62.0869C86.5708 53.6801 84.4419 45.2914 80.2838 37.1469C78.4035 33.4678 76.9029 29.6576 75.8273 25.8249C75.6916 25.3458 75.19 25.0656 74.7109 25.2011C74.2318 25.3368 73.9515 25.8385 74.0871 26.3175C75.1189 29.994 76.5274 33.6508 78.2796 37.1965C76.1143 38.4365 66.8 43 46.9958 43C27.7284 43 18.3365 38.6444 15.8785 37.2875C17.6459 33.7161 19.0684 30.0314 20.1123 26.3266C20.2479 25.843 19.9676 25.3458 19.4886 25.2101C19.005 25.0746 18.5077 25.3548 18.3721 25.8339C17.2919 29.6621 15.7959 33.4723 13.9157 37.1559L13.8995 37.1878C13.8888 37.207 13.8787 37.2265 13.8696 37.2463C11.1261 42.6376 9.27262 48.1395 8.32737 53.6825C8.27925 53.7928 8.2525 53.9143 8.2525 54.0416C8.2525 54.0664 8.2535 54.0908 8.2555 54.1149C7.82562 56.7688 7.604 59.4316 7.59262 62.0959C7.52925 75.5513 11.1135 88.3964 18.2411 100.274C18.4129 100.555 18.7111 100.713 19.0185 100.713C19.1768 100.713 19.3349 100.667 19.484 100.591C19.9134 100.338 20.0535 99.7815 19.7959 99.3521C12.8445 87.759 9.34625 75.2303 9.405 62.1094C9.41425 59.7218 9.59912 57.334 9.95812 54.952C26.365 55.2168 36.9746 63.577 41.1065 70.7511C42.1834 72.6239 44.0754 73.8723 46.1776 74.1531V99.8087C46.1776 100.306 46.5845 100.713 47.0816 100.713C47.5788 100.713 47.9856 100.306 47.9856 99.8087V74.1534C50.0906 73.8728 51.9796 72.6243 53.0568 70.7511C57.196 63.5719 67.8179 55.2049 84.2403 54.9515C84.5986 57.3303 84.7839 59.7151 84.7945 62.1004C84.8533 75.2213 81.3549 87.7545 74.4036 99.3432C74.1505 99.768 74.286 100.324 74.7154 100.582ZM83.9353 53.1489C66.9114 53.5046 55.8451 62.2984 51.4929 69.8518C50.5984 71.4049 48.9458 72.3798 47.1649 72.4093C47.1375 72.4068 47.1098 72.4054 47.0816 72.4054C47.0535 72.4054 47.0258 72.4068 46.9984 72.4093C45.2175 72.3798 43.5649 71.4049 42.6704 69.8518C38.3255 62.3036 27.2674 53.5168 10.2632 53.1496C11.1627 48.3603 12.7665 43.6001 15.0622 38.9161C17.8655 40.4788 27.415 44.8123 46.9958 44.8123C66.9835 44.8123 76.5186 40.2968 79.0954 38.8224C81.4126 43.5348 83.03 48.3263 83.9353 53.1489Z" fill="#CA6464" stroke="#CA6464" strokeWidth="0.4"/>
<path d="M0.791016 62.0924C0.791016 62.5941 1.19328 63.0009 1.69497 63.0009C2.19665 63.0009 2.59888 62.5986 2.6079 62.1104C2.63955 53.9929 4.70052 45.8754 8.73214 37.9841C12.235 31.1139 14.3819 25.3152 15.2768 20.2937H22.1016V25.7988C22.1016 26.1468 22.305 26.4677 22.6214 26.6169C22.9378 26.766 23.3129 26.7163 23.5841 26.4903L35.9636 16.1537C36.1716 15.9819 36.2892 15.7288 36.2892 15.4575C36.2892 15.1864 36.1716 14.9333 35.9636 14.7615L23.5841 4.42484C23.3129 4.19885 22.9378 4.14918 22.6214 4.29833C22.305 4.44748 22.1016 4.76383 22.1016 5.11638V10.6214H15.3943C15.2994 7.34017 14.879 4.02261 14.2191 1.40568C14.0971 0.922064 13.6045 0.628239 13.1209 0.750276C12.6373 0.872314 12.3435 1.36499 12.4655 1.8486C13.148 4.57402 13.5638 8.10392 13.6045 11.5344C13.609 12.0315 14.0113 12.4294 14.5084 12.4294H23.001C23.4981 12.4294 23.905 12.0225 23.905 11.5254V7.04629L33.9705 15.453L23.905 23.8598V19.3808C23.905 18.8835 23.4981 18.4768 23.001 18.4768H14.5084C14.061 18.4768 13.6814 18.8022 13.6135 19.2405C12.8361 24.2439 10.7119 30.1061 7.11414 37.1524C2.95597 45.2969 0.827166 53.6857 0.791016 62.0924Z" fill="#CA6464"/>
</svg>
