<svg width="100" height="101" viewBox="0 0 100 101" fill="none" xmlns="http://www.w3.org/2000/svg">
<path d="M49.9999 100.713C39.0111 100.713 28.5868 97.2128 19.8557 90.5923L19.5247 90.3427L19.1883 90.5869C18.0758 91.39 16.7626 91.8133 15.4005 91.8133C13.6586 91.8133 12.0252 91.1404 10.8042 89.914C8.54675 87.6511 8.25918 84.1238 10.1259 81.5299L10.3646 81.1935L10.115 80.8624C3.59232 72.2289 0 61.5221 0 50.7127C0 39.7185 3.50008 29.2941 10.1206 20.5686L10.3702 20.2376L10.1314 19.9011C8.26463 17.3018 8.54691 13.7745 10.8097 11.5171C12.0361 10.2907 13.6696 9.61235 15.406 9.61235C16.7735 9.61235 18.0814 10.0356 19.1938 10.8387L19.5249 11.0775L19.8559 10.8279C28.5873 4.20755 39.006 0.712891 50.0001 0.712891C60.9942 0.712891 71.4132 4.21297 80.1443 10.8279L80.4753 11.0775L80.8117 10.8333C81.9242 10.0302 83.232 9.60693 84.5995 9.60693C86.336 9.60693 87.9694 10.2852 89.1958 11.5117C91.4533 13.7691 91.7408 17.2964 89.8741 19.8957L89.6354 20.2322L89.885 20.5632C96.5053 29.2946 100 39.7188 100 50.7129C100 61.5225 96.4077 72.2287 89.8794 80.857L89.6298 81.1881L89.8686 81.5245C91.7354 84.1238 91.4531 87.6511 89.1903 89.9086C87.9639 91.135 86.3305 91.8079 84.594 91.8079C83.2319 91.8079 81.9186 91.3846 80.8062 90.5815L80.4697 90.3373L80.1387 90.5869C71.4129 97.2181 60.9885 100.713 49.9999 100.713ZM15.4006 78.8164C17.1371 78.8164 18.7705 79.4893 19.9969 80.7157C22.0155 82.7344 22.4823 85.7895 21.1636 88.3238L20.9411 88.747L21.321 89.0347C29.6399 95.2752 39.5597 98.5745 50.0009 98.5745C60.4421 98.5745 70.361 95.2752 78.6754 89.0292L79.0552 88.7416L78.8327 88.3184C77.5141 85.7842 77.9808 82.7291 79.9994 80.7157C81.2258 79.4893 82.8538 78.8164 84.5957 78.8164C85.6431 78.8164 86.685 79.0714 87.6075 79.549L88.0308 79.7715L88.3184 79.3916C94.5644 71.0727 97.8637 61.1529 97.8637 50.7117C97.8637 40.2705 94.5644 30.3516 88.3184 22.0318L88.0308 21.6519L87.6075 21.8744C86.685 22.3519 85.6485 22.607 84.6012 22.607C82.8647 22.607 81.2312 21.9341 80.0049 20.7077C77.9862 18.689 77.5194 15.6339 78.8382 13.0996L79.0606 12.6763L78.6808 12.3887C70.3619 6.14817 60.442 2.84883 50.0008 2.84883C39.5596 2.84883 29.6407 6.14817 21.3264 12.3941L20.9465 12.6817L21.169 13.105C22.4877 15.6392 22.021 18.6943 20.0023 20.7131C18.7759 21.9395 17.1425 22.6124 15.406 22.6124C14.3587 22.6124 13.3222 22.3573 12.3996 21.8798L11.9764 21.6573L11.6888 22.0372C5.43737 30.3507 2.13803 40.2704 2.13803 50.7115C2.13803 61.1576 5.43737 71.0716 11.6833 79.3859L11.971 79.7658L12.3942 79.5433C13.3113 79.0712 14.3533 78.8164 15.4006 78.8164ZM15.4006 80.9545C14.2339 80.9545 13.1377 81.4103 12.3128 82.2298C10.6142 83.9283 10.6142 86.7013 12.3128 88.3997C13.1377 89.2246 14.2338 89.675 15.4006 89.675C16.5674 89.675 17.6635 89.2191 18.4884 88.3997C19.3132 87.5749 19.7636 86.4787 19.7636 85.312C19.7636 84.1452 19.3078 83.0491 18.4884 82.2242C17.6635 81.4048 16.5674 80.9545 15.4006 80.9545ZM84.5993 80.9545C83.4326 80.9545 82.3364 81.4103 81.5115 82.2298C80.6867 83.0546 80.2363 84.1507 80.2363 85.3175C80.2363 86.4843 80.6921 87.5804 81.5115 88.4053C82.3309 89.2302 83.4325 89.6805 84.5993 89.6805C85.7661 89.6805 86.8622 89.2247 87.6871 88.4053C88.5119 87.5804 88.9623 86.4843 88.9623 85.3175C88.9623 84.1507 88.5065 83.0547 87.6871 82.2298C86.8622 81.4049 85.7661 80.9545 84.5993 80.9545ZM84.5993 11.7504C83.4326 11.7504 82.3364 12.2062 81.5115 13.031C80.6866 13.8559 80.2363 14.952 80.2363 16.1188C80.2363 17.2856 80.6921 18.3817 81.5115 19.2066C82.3363 20.0314 83.4325 20.4818 84.5993 20.4818C85.7661 20.4818 86.8622 20.026 87.6871 19.2066C88.5119 18.3817 88.9623 17.2856 88.9623 16.1188C88.9623 14.952 88.5065 13.856 87.6871 13.031C86.8622 12.2008 85.7661 11.7504 84.5993 11.7504ZM15.4006 11.7504C14.2339 11.7504 13.1377 12.2062 12.3128 13.0256C11.488 13.8505 11.0376 14.9466 11.0376 16.1134C11.0376 17.2802 11.4934 18.3762 12.3128 19.2011C13.1377 20.026 14.2338 20.4764 15.4006 20.4764C16.5674 20.4764 17.6635 20.0206 18.4884 19.2011C19.3132 18.3763 19.7636 17.2802 19.7636 16.1134C19.7636 14.9466 19.3078 13.8505 18.4884 13.0256C17.6635 12.2008 16.5674 11.7504 15.4006 11.7504ZM35.2619 81.6436C35.0883 81.6436 34.9092 81.6001 34.7518 81.5133C34.3123 81.2745 34.0952 80.7753 34.2309 80.2923L42.1482 51.1567H25.5431C25.1904 51.1567 24.8594 50.9831 24.6586 50.6901C24.4578 50.397 24.4198 50.028 24.5501 49.697L36.0761 20.4586C36.2389 20.0462 36.6296 19.7803 37.0692 19.7803H64.6197C64.9887 19.7803 65.3415 19.9757 65.5314 20.2958C65.7267 20.616 65.7376 21.0121 65.5639 21.3432L58.2977 35.3212H74.4638C74.8817 35.3212 75.267 35.5709 75.4406 35.9507C75.6143 36.3306 75.5437 36.7864 75.267 37.1011L36.0596 81.2789C35.8589 81.5068 35.5658 81.6436 35.2619 81.6436ZM27.1112 49.0197H43.5427C43.8737 49.0197 44.1939 49.1771 44.3946 49.4375C44.5954 49.7034 44.666 50.0507 44.5791 50.3655L38.1216 74.1277L39.0821 74.6486L72.0867 37.4557H56.5401C56.1711 37.4557 55.8184 37.2603 55.6285 36.9402C55.4331 36.6254 55.4223 36.2239 55.5905 35.8928L62.8567 21.9148L37.7914 21.9202L27.1112 49.0197Z" fill="#CA6464"/>
</svg>
