<?xml version="1.0" encoding="UTF-8"?>
<svg id="Layer_1" data-name="Layer 1" xmlns="http://www.w3.org/2000/svg" viewBox="0 0 1501.33 624.08">
  <defs>
    <style>
      .cls-1 {
        letter-spacing: .51em;
      }

      .cls-2 {
        letter-spacing: .54em;
      }

      .cls-3 {
        font-family: Mont-SemiBold, Mont;
        font-size: 80px;
        font-weight: 600;
      }

      .cls-3, .cls-4 {
        fill: #b1554a;
      }

      .cls-5 {
        letter-spacing: .52em;
      }

      .cls-6 {
        letter-spacing: .54em;
      }
    </style>
  </defs>
  <text class="cls-3" transform="translate(357.8 611.65)"><tspan class="cls-2" x="0" y="0">MEDI</tspan><tspan class="cls-5" x="376.08" y="0">C</tspan><tspan class="cls-6" x="479.44" y="0">A</tspan><tspan class="cls-1" x="578.96" y="0">L</tspan></text>
  <g>
    <path class="cls-4" d="m569.6,325.54v207.35h-21.15l-154.67-226.27v164.69c0,34.49,8.16,50.07,27.82,59.71v.74h-63.8v-.74c16.69-10.01,24.48-25.59,24.48-52.67v-161.72c0-24.48-2.96-33.76-18.17-43.77v-.74h90.87l102.75,150.97v-90.51c0-34.49-7.79-50.07-27.45-59.72v-.74h63.43v.74c-16.69,10.02-24.11,25.6-24.11,52.67Z"/>
    <path class="cls-4" d="m767.28,431.62h-103.49c0,45.99,20.03,72.7,51.56,72.7,20.02,0,37.83-10.01,48.22-35.61l2.22.74c-8.16,40.43-36.35,66.03-78.63,66.03-47.85,0-87.54-34.87-87.54-95.33s41.17-95.7,89.02-95.7c53.41,0,78.64,38.2,78.64,87.17Zm-58.98-7.79c0-41.54-2.6-73.08-20.03-73.08-15.95,0-23.74,30.42-24.48,73.08h44.51Z"/>
    <path class="cls-4" d="m899.32,389.33c0-25.59-2.22-31.16-16.32-40.43v-.74h79.75v143.92c0,24.11,2.22,30.04,15.21,38.94v.74h-78.64v-44.14c-7.79,30.79-28.56,47.85-56.38,47.85-35.24,0-51.93-24.85-51.93-58.6v-87.54c0-25.59-2.22-31.16-16.32-40.43v-.74h79.75v129.82c0,14.1,5.93,25.97,19.66,25.97,14.47,0,25.22-13.73,25.22-43.03v-71.59Z"/>
    <path class="cls-4" d="m1217.56,272.12c11.87,0,20.4-.74,25.59-3.34l10.76,72.7h-.74c-20.4-37.46-38.58-60.09-83.83-60.09h-25.23v111.28h19.29c30.05,0,41.17-8.16,52.67-42.66h.74v92.36h-.74c-11.5-34.12-22.62-40.06-52.67-40.06h-19.29v120.18h28.93c46.74,0,66.77-27.08,87.17-67.14h.74l-10.02,76.41h-193.25v-.74c15.21-10.01,18.18-19.29,18.18-43.77v-170.62c0-24.48-2.97-33.76-18.18-43.77v-.74h159.87Z"/>
    <path class="cls-4" d="m1393.36,389.33c0-25.59-2.22-31.16-16.32-40.43v-.74h79.75v143.92c0,24.11,2.22,30.04,15.21,38.94v.74h-78.64v-44.14c-7.79,30.79-28.56,47.85-56.38,47.85-35.24,0-51.93-24.85-51.93-58.6v-87.54c0-25.59-2.22-31.16-16.32-40.43v-.74h79.75v129.82c0,14.1,5.93,25.97,19.66,25.97,14.47,0,25.23-13.73,25.23-43.03v-71.59Z"/>
  </g>
  <path class="cls-4" d="m328.89,303.39c0,18.59,0,37.18,0,55.77,0,1.43.03,2.86-.05,4.29-.1,1.71-.63,2.31-2.25,2.32-2.86.02-5.74.08-8.57-.2-26.12-2.61-49.43-11.95-69.64-28.9-11.79-9.89-21.37-21.55-28.87-34.91-5.8-10.33-9.99-21.32-12.64-32.91-2.76-12.09-4.31-24.32-3.35-36.68,1.07-13.77,4.21-27.14,9.56-39.94,7.51-17.96,18.62-33.35,33.24-46.12,16.46-14.39,35.47-23.78,56.89-28.38,12.9-2.77,25.93-3.07,38.93-1.92,17.47,1.55,33.84,7.01,49.08,15.73,10.14,5.8,19.41,12.77,27.5,21.21,17.5,18.25,28.95,39.69,33.52,64.67,1.06,5.8,2,11.61,2.04,17.52,0,1.07.03,2.15,0,3.22-.04,1.24-.64,2.04-1.93,2.08-1.79.06-3.57.08-5.36.08-33.25.02-66.49.03-99.74.04-5.18,0-10.37-.03-15.55.04-2.34.03-2.72.48-2.78,2.93-.06,2.86-.02,5.72-.02,8.58,0,17.16,0,34.32,0,51.48Z"/>
  <path class="cls-4" d="m328.89,52.71c0,5.72.04,11.44-.01,17.16-.03,3.15-.32,3.43-3.27,3.58-1.78.09-3.57.08-5.36.13-19.15.59-37.45,5.06-55.12,12.22-15.34,6.21-29.39,14.69-42.13,25.26-14.84,12.31-27.45,26.56-37.44,43.11-10.84,17.95-18.02,37.28-21.65,57.89-2.55,14.49-3.15,29.07-1.59,43.77,1.4,13.2,3.94,26.12,8.18,38.68,6.48,19.16,16.23,36.51,29.07,52.15,14.84,18.08,32.7,32.42,53.43,43.16,14.68,7.6,30.25,12.67,46.53,15.55,7.93,1.4,15.9,2.31,23.96,2.31.89,0,1.79,0,2.68.07,2.09.15,2.56.58,2.69,2.51.05.71.03,1.43.03,2.14,0,10.73,0,21.46,0,32.18,0,.89.01,1.79-.06,2.68-.13,1.62-.66,2.22-2.39,2.2-5.54-.08-11.12.08-16.61-.51-6.19-.67-12.4-1.42-18.54-2.63-6.13-1.2-12.22-2.51-18.25-4.17-28.85-7.95-54.75-21.53-77.71-40.71-23.53-19.66-42.06-43.22-55.26-70.91-8.58-18-14.5-36.85-17.53-56.59-1.66-10.78-2.75-21.58-2.91-32.51-.27-18.18,2.27-35.98,6.77-53.51,6.89-26.82,18.86-51.26,35.57-73.3,18.62-24.55,41.58-44.13,68.8-58.67,18.09-9.67,37.18-16.55,57.29-20.46,10.87-2.11,21.85-3.66,32.97-3.75.89,0,1.79-.03,2.68-.03,5.11.01,5.14.02,5.17,4.91.03,5.36,0,10.73,0,16.09Z"/>
  <path class="cls-4" d="m56.74,240.37c6.08,0,12.15-.04,18.23.02,2.35.02,2.8.5,2.85,2.87.12,5.89.39,11.77.86,17.65,1.17,14.46,3.63,28.66,7.21,42.7,4.74,18.61,11.62,36.38,20.51,53.38,9.06,17.33,20.04,33.34,32.84,48.13,18.54,21.41,40.15,39.08,64.6,53.3,21.62,12.57,44.73,21.43,69.08,26.97,10.25,2.33,20.64,3.97,31.15,4.97,6.78.64,13.54.81,20.32,1.03.89.03,1.78.06,2.67.14,1.02.09,1.62.73,1.74,1.71.11.88.09,1.78.09,2.68,0,10.9,0,21.8,0,32.71,0,.89-.02,1.79-.1,2.68-.09.97-.58,1.65-1.61,1.81-.35.06-.71.12-1.06.11-8.03-.26-16.05.02-24.08-.97-6.19-.76-12.4-1.43-18.57-2.35-19.31-2.88-38.08-7.84-56.36-14.62-23.9-8.87-46.28-20.66-67.07-35.43-9.47-6.73-18.55-13.95-27.17-21.76-21.6-19.57-39.95-41.81-54.99-66.76-14.48-24.02-25.11-49.67-32.35-76.76-3.27-12.26-5.66-24.71-7.17-37.28-1.23-10.27-2.47-20.57-2.31-30.96.02-1.07-.04-2.15.01-3.22.11-2.28.5-2.67,2.99-2.73,2.5-.06,5-.02,7.51-.02,3.4,0,6.79,0,10.19,0v.02Z"/>
</svg>