<svg width="100" height="101" viewBox="0 0 100 101" fill="none" xmlns="http://www.w3.org/2000/svg">
<mask id="path-1-inside-1_1257_619" fill="white">
<path d="M37.293 85.7335C37.293 87.8692 35.5767 89.599 33.4575 89.599H9.84063C6.47496 89.599 3.45454 87.8402 1.76692 84.9024C0.079295 81.9646 0.0792956 78.447 1.75733 75.5092L17.1951 48.5289L11.0679 50.1911C9.0254 50.7419 6.91593 49.5243 6.36939 47.4563C5.82283 45.3979 7.03101 43.272 9.08297 42.7211L24.1562 38.6334H24.1754C24.4151 38.5754 24.6548 38.5271 24.9041 38.5174C25 38.5078 25.0959 38.5271 25.1918 38.5271C25.3452 38.5271 25.4986 38.5271 25.6616 38.5464C25.7671 38.5658 25.8726 38.5947 25.9781 38.6141C26.1123 38.6431 26.2561 38.6624 26.3904 38.7107C26.5534 38.7687 26.7068 38.846 26.8698 38.9233C26.937 38.962 27.0137 38.9813 27.0808 39.02C27.1383 39.0489 27.1863 39.0973 27.2438 39.1359C27.3972 39.2326 27.5506 39.3389 27.6945 39.4645C27.7903 39.5514 27.8671 39.6481 27.9534 39.7351C28.0397 39.822 28.1259 39.909 28.2027 40.0153C28.289 40.1216 28.3465 40.2472 28.4232 40.3632C28.4807 40.4598 28.5479 40.5565 28.6054 40.6531C28.7013 40.856 28.778 41.0687 28.8451 41.2812C28.8547 41.3102 28.8643 41.3392 28.8739 41.3682L32.9299 56.5592C33.4765 58.6176 32.2683 60.7436 30.2164 61.2944C29.8808 61.3813 29.5451 61.4297 29.2191 61.4297C27.5315 61.4297 25.9782 60.2894 25.5179 58.5692L23.8686 52.3941L8.41117 79.3745C7.99885 80.0993 8.22898 80.7274 8.41117 81.0367C8.59336 81.3459 9.01527 81.8678 9.83994 81.8678H33.447C35.5758 81.8678 37.293 83.5978 37.293 85.7335ZM31.4822 31.2594C33.3137 32.3321 35.6629 31.704 36.7272 29.8486L48.5597 9.26448C48.9721 8.5397 49.6337 8.4334 49.9885 8.4334C50.3433 8.4334 51.0049 8.5397 51.4173 9.26448L66.8747 36.2362L60.7474 34.5837C58.6954 34.0329 56.5955 35.2505 56.049 37.3185C55.5024 39.3769 56.7202 41.5029 58.7626 42.0537L73.8358 46.1221H73.8454C73.9796 46.1608 74.1139 46.1801 74.2481 46.1995C74.2769 46.1995 74.3056 46.2091 74.3344 46.2188C74.4303 46.2284 74.5262 46.2284 74.6221 46.2381C74.6892 46.2381 74.7659 46.2478 74.833 46.2478C75.0248 46.2478 75.2166 46.2284 75.3988 46.1995C75.4563 46.1898 75.5138 46.1801 75.5713 46.1608C75.7056 46.1318 75.8302 46.1028 75.9549 46.0642C76.022 46.0448 76.0795 46.0255 76.1467 45.9965C76.2713 45.9482 76.3864 45.8999 76.5015 45.8419C76.559 45.8129 76.6165 45.7839 76.674 45.7549C76.6932 45.7453 76.722 45.7356 76.7412 45.7163C76.7891 45.6873 76.8179 45.6486 76.8658 45.6293C77.0097 45.5423 77.1439 45.4457 77.2686 45.3394C77.3357 45.2814 77.3932 45.2234 77.4603 45.1654C77.5754 45.0591 77.6713 44.9432 77.7767 44.8272C77.8247 44.7692 77.8822 44.7016 77.9302 44.6436C78.0261 44.5083 78.1124 44.3537 78.1987 44.2087C78.2274 44.1507 78.2658 44.1024 78.285 44.0445C78.3808 43.8318 78.4671 43.6193 78.5343 43.3777L82.5712 28.1867C83.1177 26.1283 81.9 24.0023 79.8576 23.4515C77.8152 22.9007 75.7057 24.128 75.1591 26.1863L73.5195 32.3614L58.0621 5.40947C56.3745 2.47171 53.3637 0.712891 49.998 0.712891H49.9884C46.6227 0.712891 43.6023 2.46206 41.9242 5.39982L30.0917 25.9839C29.0274 27.8297 29.6508 30.1868 31.4822 31.2594ZM98.2299 75.5002L86.4356 54.9075C85.3713 53.0617 83.0317 52.4239 81.2002 53.4966C79.3687 54.5693 78.7359 56.9272 79.8003 58.7729L91.6041 79.3657C92.0164 80.0905 91.7863 80.7187 91.6041 81.0279C91.4219 81.3371 91 81.859 90.1753 81.859H59.2703L63.7578 77.3364C65.2537 75.8288 65.2537 73.384 63.7578 71.8668C62.2619 70.3592 59.8264 70.3592 58.3305 71.8668L47.2938 82.9993C47.1116 83.1829 46.9582 83.3762 46.8144 83.5888C46.7569 83.6854 46.7089 83.7821 46.661 83.8787C46.5939 84.0043 46.5171 84.1203 46.4692 84.2459C46.4213 84.3716 46.3829 84.5069 46.3446 84.6422C46.3158 84.7485 46.2678 84.8548 46.2487 84.9707C46.1528 85.4732 46.1528 85.9854 46.2487 86.488C46.2678 86.6039 46.3158 86.7102 46.3446 86.8165C46.3829 86.9518 46.4117 87.0774 46.4692 87.2127C46.5267 87.3383 46.5939 87.464 46.661 87.5799C46.7185 87.6766 46.7569 87.7829 46.8144 87.8699C46.9582 88.0825 47.1117 88.2854 47.2938 88.4593L58.3305 99.5822C59.0784 100.336 60.0564 100.713 61.0441 100.713C62.0317 100.713 63.0098 100.336 63.7577 99.5822C65.2536 98.0746 65.2536 95.6298 63.7577 94.1126L59.2702 89.5997H90.1654C93.5406 89.5997 96.5514 87.8409 98.2391 84.9031C99.9267 81.9653 99.9175 78.4476 98.2299 75.5002Z"/>
</mask>
<path d="M37.293 85.7335C37.293 87.8692 35.5767 89.599 33.4575 89.599H9.84063C6.47496 89.599 3.45454 87.8402 1.76692 84.9024C0.079295 81.9646 0.0792956 78.447 1.75733 75.5092L17.1951 48.5289L11.0679 50.1911C9.0254 50.7419 6.91593 49.5243 6.36939 47.4563C5.82283 45.3979 7.03101 43.272 9.08297 42.7211L24.1562 38.6334H24.1754C24.4151 38.5754 24.6548 38.5271 24.9041 38.5174C25 38.5078 25.0959 38.5271 25.1918 38.5271C25.3452 38.5271 25.4986 38.5271 25.6616 38.5464C25.7671 38.5658 25.8726 38.5947 25.9781 38.6141C26.1123 38.6431 26.2561 38.6624 26.3904 38.7107C26.5534 38.7687 26.7068 38.846 26.8698 38.9233C26.937 38.962 27.0137 38.9813 27.0808 39.02C27.1383 39.0489 27.1863 39.0973 27.2438 39.1359C27.3972 39.2326 27.5506 39.3389 27.6945 39.4645C27.7903 39.5514 27.8671 39.6481 27.9534 39.7351C28.0397 39.822 28.1259 39.909 28.2027 40.0153C28.289 40.1216 28.3465 40.2472 28.4232 40.3632C28.4807 40.4598 28.5479 40.5565 28.6054 40.6531C28.7013 40.856 28.778 41.0687 28.8451 41.2812C28.8547 41.3102 28.8643 41.3392 28.8739 41.3682L32.9299 56.5592C33.4765 58.6176 32.2683 60.7436 30.2164 61.2944C29.8808 61.3813 29.5451 61.4297 29.2191 61.4297C27.5315 61.4297 25.9782 60.2894 25.5179 58.5692L23.8686 52.3941L8.41117 79.3745C7.99885 80.0993 8.22898 80.7274 8.41117 81.0367C8.59336 81.3459 9.01527 81.8678 9.83994 81.8678H33.447C35.5758 81.8678 37.293 83.5978 37.293 85.7335ZM31.4822 31.2594C33.3137 32.3321 35.6629 31.704 36.7272 29.8486L48.5597 9.26448C48.9721 8.5397 49.6337 8.4334 49.9885 8.4334C50.3433 8.4334 51.0049 8.5397 51.4173 9.26448L66.8747 36.2362L60.7474 34.5837C58.6954 34.0329 56.5955 35.2505 56.049 37.3185C55.5024 39.3769 56.7202 41.5029 58.7626 42.0537L73.8358 46.1221H73.8454C73.9796 46.1608 74.1139 46.1801 74.2481 46.1995C74.2769 46.1995 74.3056 46.2091 74.3344 46.2188C74.4303 46.2284 74.5262 46.2284 74.6221 46.2381C74.6892 46.2381 74.7659 46.2478 74.833 46.2478C75.0248 46.2478 75.2166 46.2284 75.3988 46.1995C75.4563 46.1898 75.5138 46.1801 75.5713 46.1608C75.7056 46.1318 75.8302 46.1028 75.9549 46.0642C76.022 46.0448 76.0795 46.0255 76.1467 45.9965C76.2713 45.9482 76.3864 45.8999 76.5015 45.8419C76.559 45.8129 76.6165 45.7839 76.674 45.7549C76.6932 45.7453 76.722 45.7356 76.7412 45.7163C76.7891 45.6873 76.8179 45.6486 76.8658 45.6293C77.0097 45.5423 77.1439 45.4457 77.2686 45.3394C77.3357 45.2814 77.3932 45.2234 77.4603 45.1654C77.5754 45.0591 77.6713 44.9432 77.7767 44.8272C77.8247 44.7692 77.8822 44.7016 77.9302 44.6436C78.0261 44.5083 78.1124 44.3537 78.1987 44.2087C78.2274 44.1507 78.2658 44.1024 78.285 44.0445C78.3808 43.8318 78.4671 43.6193 78.5343 43.3777L82.5712 28.1867C83.1177 26.1283 81.9 24.0023 79.8576 23.4515C77.8152 22.9007 75.7057 24.128 75.1591 26.1863L73.5195 32.3614L58.0621 5.40947C56.3745 2.47171 53.3637 0.712891 49.998 0.712891H49.9884C46.6227 0.712891 43.6023 2.46206 41.9242 5.39982L30.0917 25.9839C29.0274 27.8297 29.6508 30.1868 31.4822 31.2594ZM98.2299 75.5002L86.4356 54.9075C85.3713 53.0617 83.0317 52.4239 81.2002 53.4966C79.3687 54.5693 78.7359 56.9272 79.8003 58.7729L91.6041 79.3657C92.0164 80.0905 91.7863 80.7187 91.6041 81.0279C91.4219 81.3371 91 81.859 90.1753 81.859H59.2703L63.7578 77.3364C65.2537 75.8288 65.2537 73.384 63.7578 71.8668C62.2619 70.3592 59.8264 70.3592 58.3305 71.8668L47.2938 82.9993C47.1116 83.1829 46.9582 83.3762 46.8144 83.5888C46.7569 83.6854 46.7089 83.7821 46.661 83.8787C46.5939 84.0043 46.5171 84.1203 46.4692 84.2459C46.4213 84.3716 46.3829 84.5069 46.3446 84.6422C46.3158 84.7485 46.2678 84.8548 46.2487 84.9707C46.1528 85.4732 46.1528 85.9854 46.2487 86.488C46.2678 86.6039 46.3158 86.7102 46.3446 86.8165C46.3829 86.9518 46.4117 87.0774 46.4692 87.2127C46.5267 87.3383 46.5939 87.464 46.661 87.5799C46.7185 87.6766 46.7569 87.7829 46.8144 87.8699C46.9582 88.0825 47.1117 88.2854 47.2938 88.4593L58.3305 99.5822C59.0784 100.336 60.0564 100.713 61.0441 100.713C62.0317 100.713 63.0098 100.336 63.7577 99.5822C65.2536 98.0746 65.2536 95.6298 63.7577 94.1126L59.2702 89.5997H90.1654C93.5406 89.5997 96.5514 87.8409 98.2391 84.9031C99.9267 81.9653 99.9175 78.4476 98.2299 75.5002Z" fill="#CA6464" stroke="#FFF2EB" strokeWidth="5" mask="url(#path-1-inside-1_1257_619)"/>
</svg>
