<svg width="126" height="99" viewBox="0 0 126 99" fill="none" xmlns="http://www.w3.org/2000/svg">
<path d="M21.0996 15.7217H79.2236C81.894 15.7218 84.0634 17.8911 84.0635 20.5615V50.2402C84.0635 52.9107 81.8941 55.081 79.2236 55.0811H21.0996C18.4292 55.0809 16.2598 52.9107 16.2598 50.2402V20.5615C16.2599 17.8912 18.4292 15.7218 21.0996 15.7217ZM21.0996 18.6338C20.0363 18.6338 19.1721 19.4983 19.1719 20.5615V50.2402C19.1719 51.3036 20.0362 52.168 21.0996 52.168L46.0166 52.1758H46.457L46.415 51.7373C46.3955 51.5327 46.3741 51.4611 46.374 51.3262C46.374 50.5941 46.5922 49.9178 46.9619 49.334L47.0947 49.124L46.9648 48.9111L41.3467 39.6943C40.9266 39.0055 41.1442 38.1093 41.834 37.6885L41.833 37.6875C42.525 37.2722 43.4217 37.4885 43.8408 38.1758L49.4658 47.4004L49.5996 47.6191L49.8545 47.5898C50.0146 47.571 50.0671 47.5567 50.1572 47.5566C52.2352 47.5566 53.9268 49.2482 53.9268 51.3262C53.9267 51.4536 53.9051 51.5345 53.8857 51.7373L53.8447 52.1758H79.2236C80.2869 52.1758 81.1512 51.3113 81.1514 50.248L81.1504 20.5615C81.1502 19.4983 80.2859 18.6338 79.2227 18.6338H21.0996Z" fill="#CA6464" stroke="#FFF2EB" strokeWidth="0.8"/>
<path d="M50.1648 21.1484C49.1367 21.1484 48.3086 21.9838 48.3086 23.0047V25.9747C48.3086 27.0028 49.1439 27.831 50.1648 27.831C51.1929 27.831 52.0211 26.9957 52.0211 25.9747V23.0047C52.0211 21.9766 51.1857 21.1484 50.1648 21.1484Z" fill="#CA6464"/>
<path d="M27.2501 30.6656C26.5932 29.8731 25.4223 29.7803 24.6298 30.43C23.8445 31.094 23.7374 32.2649 24.4014 33.0502L26.3077 35.3278C26.6789 35.7704 27.2001 35.9918 27.7356 35.9918C28.1568 35.9918 28.5781 35.849 28.9279 35.5562C29.7133 34.8923 29.8204 33.7214 29.1564 32.936L27.2501 30.6656Z" fill="#CA6464"/>
<path d="M38.5706 24.7746C38.2065 23.8107 37.1356 23.3324 36.1788 23.6894C35.215 24.0535 34.7295 25.1244 35.0936 26.0811L36.136 28.8584C36.4144 29.6009 37.1213 30.065 37.878 30.065C38.0922 30.065 38.3136 30.0293 38.5277 29.9436C39.4916 29.5795 39.9771 28.5085 39.613 27.5518L38.5706 24.7746Z" fill="#CA6464"/>
<path d="M65.0771 24.0528C64.1132 23.6672 63.0423 24.1242 62.6568 25.0809L61.543 27.8296C61.1575 28.7791 61.6144 29.8644 62.5711 30.2499C62.7996 30.3427 63.0352 30.3855 63.2636 30.3855C63.999 30.3855 64.6916 29.95 64.9843 29.2218L66.098 26.473C66.4907 25.5163 66.0266 24.4311 65.0771 24.0528Z" fill="#CA6464"/>
<path d="M74.3381 31.6581L72.3389 33.8499C71.6464 34.6067 71.6964 35.7848 72.4603 36.4773C72.8173 36.8057 73.2671 36.9628 73.7169 36.9628C74.2167 36.9628 74.7236 36.7557 75.0877 36.3559L77.0868 34.1641C77.7794 33.4073 77.7294 32.2293 76.9655 31.5367C76.2087 30.8513 75.0306 30.9013 74.3381 31.6581Z" fill="#CA6464"/>
<path d="M27.2119 75.6934H73.1113C73.862 75.6934 74.4678 76.3037 74.4678 77.0498C74.4677 77.7957 73.862 78.4062 73.1113 78.4062H27.2119C26.4659 78.4062 25.8556 77.8004 25.8555 77.0498C25.8555 76.3038 26.4612 75.6934 27.2119 75.6934Z" fill="#CA6464" stroke="#FFF2EB"/>
<path d="M104.333 68.9541C105.079 68.9541 105.689 69.5599 105.689 70.3105V80.5059L107.3 78.8955C107.823 78.3719 108.688 78.3668 109.23 78.8984C109.761 79.4315 109.76 80.2844 109.228 80.8164L105.294 84.75C105.172 84.8723 105.021 84.9714 104.852 85.04L104.847 85.042C104.685 85.1096 104.508 85.1465 104.333 85.1465C104.167 85.1464 103.988 85.1104 103.814 85.04C103.646 84.9714 103.495 84.8723 103.373 84.75H103.374L99.4473 80.8164H99.4463C98.9134 80.2835 98.9133 79.4285 99.4463 78.8955C99.9792 78.3626 100.834 78.3625 101.367 78.8955L102.978 80.5059V70.3105C102.978 69.5646 103.582 68.9543 104.333 68.9541Z" fill="#CA6464" stroke="#FFF2EB"/>
<path d="M10.9561 0.400391H89.3691C94.66 0.400474 98.9717 4.71219 98.9717 10.0029V57.4697L99.4678 57.3477C101.032 56.9619 102.656 56.7373 104.326 56.7373C115.354 56.7373 124.354 65.572 124.639 76.5342L124.646 77.0576C124.645 88.2526 115.536 97.369 104.334 97.3691C101.381 97.3691 98.5871 96.718 96.0508 95.583L95.8174 95.4785L95.625 95.6465C93.8803 97.1646 91.7087 98.0254 89.376 98.0254H10.9561C5.66509 98.0254 1.35352 93.7136 1.35352 88.4229V10.0029C1.35352 4.70502 5.66508 0.400391 10.9561 0.400391ZM10.9561 3.31934C7.27258 3.31934 4.27258 6.31851 4.27246 10.002V88.415C4.27246 92.1051 7.26479 95.1055 10.9561 95.1055H89.3691C90.5147 95.1054 91.5872 94.7918 92.5449 94.2715L93.1074 93.9648L92.585 93.5938C87.409 89.9094 84.0147 83.8737 84.0146 77.0488C84.0146 68.8878 88.8652 61.8569 95.8271 58.6279L96.0596 58.5205V10.002C96.0594 6.3188 93.0669 3.31934 89.376 3.31934H10.9561ZM104.326 59.6572C94.7384 59.6573 86.9348 67.461 86.9346 77.0488C86.9346 86.6437 94.7309 94.4481 104.326 94.4482C113.922 94.4482 121.719 86.6438 121.719 77.0488C121.719 67.4611 113.921 59.6572 104.326 59.6572Z" fill="#CA6464" stroke="#FFF2EB" strokeWidth="0.8"/>
</svg>
