<svg width="98" height="98" viewBox="0 0 98 98" fill="none" xmlns="http://www.w3.org/2000/svg">
<path d="M67.5166 33.4844C72.0988 33.4844 76.4021 36.0234 78.75 39.9365L78.7568 39.9473C79.0987 40.4902 79.1225 40.9881 78.9854 41.4053C78.8425 41.8392 78.5089 42.232 78.0654 42.4951C77.6221 42.758 77.1078 42.8683 76.6387 42.7861C76.1853 42.7067 75.7319 42.4418 75.3848 41.8701L75.3828 41.8672L75.2178 41.6064C74.379 40.3235 73.3395 39.3152 72.0195 38.5029L71.9971 38.4893L71.3604 38.1709L71.1562 38.0693C70.6883 37.8354 70.2251 37.7193 69.8281 37.6201C69.3615 37.4654 69.0184 37.3784 68.6631 37.334C68.3123 37.2902 67.9658 37.291 67.5166 37.291C64.2221 37.291 61.2789 39.1548 59.6484 41.8701C59.3 42.4441 58.843 42.7161 58.3867 42.8018C57.9162 42.8901 57.4039 42.787 56.9639 42.5312C56.5234 42.2752 56.1906 41.8867 56.0479 41.4492C55.9102 41.0272 55.933 40.512 56.2812 39.9385L56.2822 39.9365C58.6301 36.0234 62.9344 33.4844 67.5166 33.4844Z" fill="#CA6464" stroke="#FFF2EB" strokeWidth="1.2"/>
<path d="M30.5361 33.4844C35.1183 33.4844 39.4217 36.0234 41.7695 39.9365L41.7764 39.9473C42.1182 40.4902 42.1421 40.9881 42.0049 41.4053C41.8621 41.8392 41.5284 42.232 41.085 42.4951C40.6417 42.758 40.1274 42.8683 39.6582 42.7861C39.2048 42.7067 38.7514 42.4418 38.4043 41.8701L38.4023 41.8672L38.2373 41.6064C37.3986 40.3235 36.3591 39.3152 35.0391 38.5029L35.0166 38.4893L34.9932 38.4775H34.9912L34.9893 38.4756H34.9883L34.9873 38.4746H34.9854L34.9834 38.4727H34.9824L34.9805 38.4717L34.9795 38.4707H34.9785L34.9775 38.4697H34.9766L34.9746 38.4688L34.9736 38.4678H34.9727L34.9717 38.4668H34.9697L34.9678 38.4648H34.9668L34.9658 38.4639L34.9639 38.4629H34.9629L34.9619 38.4619H34.9609L34.959 38.4609L34.958 38.46H34.957L34.9561 38.459H34.9541L34.9521 38.457H34.9512L34.9502 38.4561H34.9482L34.9463 38.4541H34.9453L34.9434 38.4531L34.9424 38.4521H34.9414L34.9404 38.4512H34.9395L34.9375 38.4502L34.9365 38.4492H34.9355L34.9346 38.4482H34.9326L34.9307 38.4463H34.9297L34.9287 38.4453L34.9268 38.4443H34.9258L34.9248 38.4434H34.9238L34.9219 38.4424L34.9209 38.4414H34.9199L34.9189 38.4404H34.917L34.915 38.4385H34.9141L34.9131 38.4375H34.9111L34.9092 38.4355H34.9082L34.9062 38.4346L34.9053 38.4336H34.9043L34.9033 38.4326H34.9023L34.9004 38.4316L34.8994 38.4307H34.8984L34.8975 38.4297H34.8955L34.8936 38.4277H34.8926L34.8916 38.4268L34.8896 38.4258H34.8887L34.8877 38.4248H34.8867L34.8848 38.4238L34.8838 38.4229H34.8828L34.8818 38.4219H34.8799L34.8779 38.4199H34.877L34.876 38.4189H34.874L34.8721 38.417H34.8711L34.8691 38.416L34.8682 38.415H34.8672L34.8662 38.4141H34.8652L34.8633 38.4131L34.8623 38.4121H34.8613L34.8604 38.4111H34.8584L34.8564 38.4092H34.8555L34.8545 38.4082L34.8525 38.4072H34.8516L34.8506 38.4062H34.8496L34.8477 38.4053L34.8467 38.4043H34.8457L34.8447 38.4033H34.8428L34.8408 38.4014H34.8398L34.8389 38.4004H34.8369L34.835 38.3984H34.834L34.832 38.3975L34.8311 38.3965H34.8301L34.8291 38.3955H34.8281L34.8262 38.3945L34.8252 38.3936H34.8242L34.8232 38.3926H34.8213L34.8193 38.3906H34.8184L34.8174 38.3896L34.8154 38.3887H34.8145L34.8135 38.3877H34.8125L34.8105 38.3867L34.8096 38.3857H34.8086L34.8076 38.3848H34.8057L34.8037 38.3828H34.8027L34.8018 38.3818H34.7998L34.7979 38.3799H34.7969L34.7949 38.3789L34.7939 38.3779H34.793L34.792 38.377H34.791L34.7891 38.376L34.7881 38.375H34.7871L34.7861 38.374H34.7842L34.7822 38.3721H34.7812L34.7803 38.3711L34.7783 38.3701H34.7773L34.7764 38.3691H34.7754L34.7734 38.3682L34.7725 38.3672H34.7715L34.7705 38.3662H34.7686L34.7666 38.3643H34.7656L34.7646 38.3633H34.7627L34.7607 38.3613H34.7598L34.7578 38.3604L34.7568 38.3594H34.7559L34.7549 38.3584H34.7539L34.752 38.3574L34.751 38.3564H34.75L34.749 38.3555H34.7471L34.7451 38.3535H34.7441L34.7432 38.3525L34.7412 38.3516H34.7402L34.7393 38.3506H34.7383L34.7363 38.3496L34.7354 38.3486H34.7344L34.7334 38.3477H34.7314L34.7295 38.3457H34.7285L34.7275 38.3447H34.7256L34.7236 38.3428H34.7227L34.7207 38.3418L34.7197 38.3408H34.7188L34.7178 38.3398H34.7168L34.7148 38.3389L34.7139 38.3379H34.7129L34.7119 38.3369H34.71L34.708 38.335H34.707L34.7051 38.334L34.7041 38.333H34.7031L34.7021 38.332H34.7012L34.6992 38.3311L34.6982 38.3301H34.6973L34.6963 38.3291H34.6943L34.6924 38.3271H34.6914L34.6904 38.3262H34.6885L34.6865 38.3242H34.6855L34.6836 38.3232L34.6826 38.3223H34.6816L34.6807 38.3213H34.6797L34.6777 38.3203L34.6768 38.3193H34.6758L34.6748 38.3184H34.6729L34.6709 38.3164H34.6699L34.668 38.3154L34.667 38.3145H34.666L34.665 38.3135H34.6641L34.6621 38.3125L34.6611 38.3115H34.6602L34.6592 38.3105H34.6572L34.6553 38.3086H34.6543L34.6533 38.3076H34.6514L34.6494 38.3057H34.6484L34.6465 38.3047L34.6455 38.3037H34.6445L34.6436 38.3027H34.6426L34.6406 38.3018L34.6396 38.3008H34.6387L34.6377 38.2998H34.6357L34.6338 38.2979H34.6328L34.6309 38.2969L34.6299 38.2959H34.6289L34.6279 38.2949H34.627L34.625 38.2939L34.624 38.293H34.623L34.6221 38.292H34.6201L34.6182 38.29H34.6172L34.6162 38.2891H34.6143L34.6123 38.2871H34.6113L34.6094 38.2861L34.6084 38.2852H34.6074L34.6064 38.2842H34.6055L34.6035 38.2832L34.6025 38.2822H34.6016L34.6006 38.2812H34.5986L34.5967 38.2793H34.5957L34.5938 38.2783L34.5928 38.2773H34.5918L34.5908 38.2764H34.5898L34.5879 38.2754L34.5869 38.2744H34.5859L34.585 38.2734H34.583L34.5811 38.2715H34.5801L34.5791 38.2705H34.5771L34.5752 38.2686H34.5742L34.5723 38.2676L34.5713 38.2666H34.5703L34.5693 38.2656H34.5684L34.5664 38.2646L34.5654 38.2637H34.5645L34.5635 38.2627H34.5615L34.5596 38.2607H34.5586L34.5566 38.2598L34.5557 38.2588H34.5547L34.5537 38.2578H34.5527L34.5508 38.2568L34.5498 38.2559H34.5488L34.5479 38.2549H34.5459L34.5439 38.2529H34.543L34.542 38.252H34.54L34.5381 38.25H34.5371L34.5352 38.249L34.5342 38.248H34.5332L34.5322 38.2471H34.5312L34.5293 38.2461L34.5283 38.2451H34.5273L34.5264 38.2441H34.5244L34.5225 38.2422H34.5215L34.5195 38.2412L34.5186 38.2402H34.5176L34.5166 38.2393H34.5156L34.5137 38.2383L34.5127 38.2373H34.5117L34.5107 38.2363H34.5088L34.5068 38.2344H34.5059L34.5049 38.2334H34.5029L34.501 38.2314H34.5L34.498 38.2305L34.4971 38.2295H34.4961L34.4951 38.2285H34.4941L34.4922 38.2275L34.4912 38.2266H34.4902L34.4893 38.2256H34.4873L34.4854 38.2236H34.4844L34.4824 38.2227L34.4814 38.2217H34.4805L34.4795 38.2207H34.4785L34.4766 38.2197L34.4756 38.2188H34.4746L34.4736 38.2178H34.4717L34.4697 38.2158H34.4688L34.4678 38.2148L34.4658 38.2139H34.4648L34.4639 38.2129H34.4629L34.4609 38.2119L34.46 38.2109H34.459L34.458 38.21H34.457L34.4551 38.209L34.4541 38.208H34.4531L34.4521 38.207H34.4502L34.4482 38.2051H34.4473L34.4453 38.2041L34.4443 38.2031H34.4434L34.4424 38.2021H34.4414L34.4395 38.2012L34.4385 38.2002H34.4375L34.4365 38.1992H34.4346L34.4326 38.1973H34.4316L34.4307 38.1963L34.4287 38.1953H34.4277L34.4268 38.1943H34.4258L34.4238 38.1934L34.4229 38.1924H34.4219L34.4209 38.1914H34.4199L34.418 38.1904L34.417 38.1895H34.416L34.415 38.1885H34.4131L34.4111 38.1865H34.4102L34.4082 38.1855L34.4072 38.1846H34.4062L34.4053 38.1836H34.4043L34.4023 38.1826L34.4014 38.1816H34.4004L34.3994 38.1807H34.3975L34.3955 38.1787H34.3945L34.3936 38.1777L34.3916 38.1768H34.3906L34.3896 38.1758H34.3887L34.3867 38.1748L34.3857 38.1738H34.3848L34.3838 38.1729H34.3818L34.3799 38.1709L34.1758 38.0693C33.7078 37.8354 33.2447 37.7193 32.8477 37.6201C32.381 37.4654 32.0379 37.3784 31.6826 37.334C31.3318 37.2902 30.9853 37.291 30.5361 37.291C27.2416 37.291 24.2984 39.1548 22.668 41.8701C22.3195 42.4441 21.8626 42.7161 21.4062 42.8018C20.9357 42.8901 20.4234 42.787 19.9834 42.5312C19.5429 42.2752 19.2101 41.8867 19.0674 41.4492C18.9298 41.0272 18.9526 40.512 19.3008 39.9385L19.3018 39.9365C21.6496 36.0234 25.9539 33.4844 30.5361 33.4844Z" fill="#CA6464" stroke="#FFF2EB" strokeWidth="1.2"/>
<path d="M12.0986 18.1465C24.7086 2.81279 46.5067 -3.24058 65.1641 3.61719L65.1689 3.61914C74.1593 6.84404 81.827 12.625 87.5293 20.2344L88.0752 20.9766C93.6426 28.7918 96.6588 38.2218 96.9336 47.7988L96.9521 48.7256C96.9518 51.348 96.7499 53.8683 96.3467 56.3887L96.3457 56.3906C93.3198 75.6556 77.8783 91.803 58.7148 95.6357H58.7139C48.7208 97.6545 38.3273 96.5443 29.0469 92.3076V92.3066H29.0459C20.3715 88.3729 12.9037 81.7131 7.95996 73.541L7.95898 73.54L7.48438 72.7412C2.66474 64.4405 0.417631 54.7668 1.19922 45.1924L1.2002 45.1865C1.90635 35.3011 5.73963 25.8163 12.0967 18.1475L12.0986 18.1465ZM57.5215 5.53027C39.5958 1.90381 20.7514 10.2946 11.2236 26.0361L11.2227 26.0381C1.79952 41.7778 3.14 62.4857 15.0527 76.6826V76.6836C20.7459 83.6189 28.4086 88.6935 37.0078 91.0781V91.0791C45.9198 93.6697 55.5515 93.254 64.25 90.0439C81.4493 83.7236 92.9414 66.8443 92.9414 48.7197C92.9414 46.4366 92.7346 44.1599 92.4258 41.8955L92.4229 41.8818C89.5681 24.0407 75.9776 9.61247 58.3633 5.70801L57.5215 5.53027Z" fill="#CA6464" stroke="#FFF2EB" strokeWidth="1.2"/>
<path d="M76.1914 52.4805C76.6718 52.2249 77.2326 52.151 77.6865 52.2627C78.7386 52.5711 79.2393 53.6356 78.9902 54.7148L78.9873 54.7236L78.9854 54.7334C77.783 60.8453 74.6758 66.5589 70.2676 70.8672C62.1495 78.7848 50.0176 81.6908 39.2998 78.2852C28.676 74.8766 20.3603 65.7539 18.2559 54.7422C18.0921 53.6357 18.6078 52.5712 19.6543 52.2637C20.7006 52.0312 21.8557 52.6973 22.083 53.6436C23.1286 59.1731 25.74 64.0799 29.7041 68.0439L29.708 68.0469C36.8149 75.0491 47.4678 77.5549 56.9746 74.5254C66.49 71.493 73.3768 63.2418 75.2578 53.6465C75.3672 53.137 75.7158 52.7335 76.1914 52.4805Z" fill="#CA6464" stroke="#FFF2EB" strokeWidth="1.2"/>
</svg>
