<svg width="96" height="101" viewBox="0 0 96 101" fill="none" xmlns="http://www.w3.org/2000/svg">
<path d="M64.7793 0.470703C70.1505 0.552312 75.1364 2.74974 78.8242 6.66699C86.0294 14.3214 85.6206 26.8588 77.8701 34.6094L56.6445 55.834C54.3572 58.1214 51.3213 59.3809 48.0869 59.3809C44.8526 59.3809 41.8166 58.1213 39.5293 55.834L17.7686 34.0742C13.9736 30.279 11.9243 25.2312 12.0059 19.8604C12.0875 14.4892 14.2848 9.50325 18.2021 5.81543C25.8566 -1.38971 38.394 -0.980918 46.1445 6.76953C47.2165 7.84154 48.9583 7.84154 50.0303 6.76953L50.5664 6.2334C54.3609 2.43933 59.3868 0.404703 64.7793 0.470703ZM64.3135 3.83008C59.9867 3.88349 55.9947 5.56099 52.9463 8.60938L52.4102 9.14453C50.027 11.5275 46.1545 11.5275 43.7715 9.14453C40.3693 5.74769 35.8696 4.02258 31.4482 4.02246C27.4628 4.02246 23.5315 5.42416 20.5166 8.2627C17.2697 11.323 15.439 15.4585 15.375 19.9121C15.311 24.3647 17.0078 28.5536 20.1543 31.7002L41.9102 53.4609C45.2195 56.7648 50.9613 56.7642 54.2656 53.46L75.4961 32.2256C81.8524 25.8695 82.3626 15.6632 76.6553 9.27246L76.3789 8.97168C73.3236 5.72434 69.188 3.89408 64.7344 3.83008H64.3135Z" fill="#CA6464" stroke="#FFF2EB" strokeWidth="0.8"/>
<path d="M86.1104 37.0869C87.8271 36.8072 89.6024 37.2525 90.9805 38.3125H90.9814C92.3591 39.3674 93.2472 40.9688 93.416 42.6992V42.7002L95.1172 60.0117C95.6852 65.8047 93.6522 71.4792 89.5381 75.5986L79.1572 85.9795C78.1482 86.9886 77.5196 88.3303 77.3838 89.751L77.0508 93.2637C76.8607 95.2718 75.888 97.0611 74.3008 98.3027L74.2998 98.3037C73.0036 99.3221 71.447 99.8564 69.832 99.8564C69.4697 99.8564 69.1096 99.8316 68.751 99.7783H68.75L60.5859 98.5762C56.8042 98.0213 54.0859 94.5981 54.3926 90.791L55.1631 81.2949C55.5439 76.5949 57.5895 72.1691 60.9238 68.8398V68.8389L72.0273 57.7354C74.1424 55.6203 77.588 55.6204 79.7031 57.7354C79.928 57.9602 80.1327 58.2036 80.3076 58.4541L80.8418 59.2178L81.1826 58.3506C81.7208 56.983 81.9406 55.4993 81.7979 53.9941L80.8457 43.9102C80.5373 40.6228 82.8484 37.6229 86.1113 37.0879L86.1104 37.0869ZM89.0518 40.8242C88.3996 40.3221 87.5947 40.0925 86.7803 40.1885L86.6172 40.2119C85.0925 40.4628 83.9839 41.7924 83.9785 43.3125L83.9922 43.6191L84.9443 53.7031C85.2998 57.4572 83.9737 61.1406 81.3057 63.8086L73.6055 71.5078C73.0218 72.0878 72.106 72.1229 71.4863 71.6172L71.3672 71.5098C70.7493 70.8873 70.7516 69.8871 71.3672 69.2715L77.502 63.1367L77.5068 63.1309L77.5127 63.125C78.3463 62.2376 78.3337 60.8367 77.4648 59.9678C76.5828 59.0861 75.1476 59.0859 74.2656 59.9678L63.1621 71.0723C60.3569 73.8776 58.6403 77.5942 58.3184 81.5469V81.5479L57.5479 91.0439C57.3761 93.1993 58.9092 95.13 61.0488 95.4443L69.2119 96.6455V96.6465C70.3262 96.8124 71.4538 96.5158 72.3477 95.8115C73.2407 95.1078 73.7928 94.0926 73.8994 92.9629L74.2324 89.4502C74.4349 87.2978 75.3883 85.273 76.9189 83.7422L87.2998 73.3613C90.6334 70.0277 92.3352 65.4582 92.0088 60.7783L91.9707 60.3252L90.2686 43.0137V43.0127C90.182 42.1415 89.7483 41.3606 89.0518 40.8242Z" fill="#CA6464" stroke="#FFF2EB"/>
<path d="M5.01758 38.3125C6.39545 37.2526 8.17539 36.8075 9.88672 37.0869V37.0879C13.0476 37.606 15.3155 40.4374 15.1738 43.6025L15.1523 43.9102L14.2002 53.9941V53.9961C14.0632 55.4986 14.2764 56.9874 14.8154 58.3516L15.1572 59.2168L15.6904 58.4541C15.8216 58.2663 15.9693 58.0821 16.1299 57.9072L16.2949 57.7354C18.4155 55.6199 21.856 55.6206 23.9707 57.7354L35.0742 68.8389V68.8398C38.3044 72.0651 40.3257 76.3194 40.7949 80.8506L40.8359 81.29L41.6055 90.7861C41.9119 94.5981 39.1947 98.0163 35.4131 98.5713H35.4121L27.248 99.7734C26.8833 99.8269 26.5227 99.8516 26.166 99.8516C24.5511 99.8516 22.9946 99.3164 21.6982 98.2979C20.1144 97.05 19.1372 95.2654 18.9473 93.2588L18.6143 89.7461C18.4833 88.3226 17.8488 86.9874 16.8428 85.9756L6.46094 75.5938C2.34681 71.4796 0.312834 65.8048 0.880859 60.0117L2.58203 42.7002V42.6992C2.75089 40.9741 3.63894 39.373 5.01758 38.3125ZM8.87012 40.1631C8.1804 40.1631 7.51167 40.393 6.95801 40.8174L6.95703 40.8184C6.26085 41.3543 5.82579 42.1301 5.73926 43.0078L4.03809 60.3193C3.56031 65.1671 5.26298 69.9192 8.7041 73.3604L19.084 83.7412C20.5144 85.1716 21.446 87.0458 21.7236 89.0479L21.7705 89.4502L22.1035 92.9629C22.2102 94.0983 22.7629 95.1072 23.6553 95.8105C24.5492 96.5151 25.6715 96.8123 26.791 96.6465L26.79 96.6455L34.9541 95.4443C37.0887 95.1301 38.6256 93.1997 38.46 91.04V91.0381L37.6895 81.542C37.3678 77.5892 35.6521 73.8718 32.8467 71.0664L21.7422 59.9629L21.7412 59.9609C20.855 59.0814 19.4209 59.0801 18.5381 59.9629L18.5361 59.9639C17.6759 60.8311 17.6548 62.2319 18.4971 63.1211L24.6416 69.2656C25.2587 69.8878 25.2572 70.8874 24.6426 71.5029C24.0202 72.1213 23.0191 72.1197 22.4033 71.5039L14.7021 63.8027C12.0344 61.1348 10.7092 57.4521 11.0645 53.6982V53.6973L12.0166 43.6133C12.171 41.9698 11.0185 40.4759 9.39355 40.207H9.39453C9.21491 40.175 9.03938 40.1631 8.87012 40.1631Z" fill="#CA6464" stroke="#FFF2EB"/>
</svg>
